# xmcd
#
# Track frame offsets: 
#        150
#        17464
#        41114
#        58936
#        80870
#        102902
#        125567
#        143511
#        160517
#        183528
#
# Disc length: 2716 seconds
#
# Revision: 0
# Processed by: cddbd v1.5.2PL0 Copyright (c) Steve Scherf et al.
# Submitted via: ExactAudioCopy v0.99pb3
#
DISCID=830a9a0a
DTITLE=Steve Fister - Deeper Than the Blues
DYEAR=2008
DGENRE=Blues
TTITLE0=You gotta live
TTITLE1=I just wanna scream
TTITLE2=Coulda woulda shoulda
TTITLE3=Found out the hard way
TTITLE4=Can't always get what you want
TTITLE5=Deeper than the blues
TTITLE6=Rise above
TTITLE7=Funky shonuff
TTITLE8=Come together
TTITLE9=Last of me
EXTD=
EXTT0=
EXTT1=
EXTT2=
EXTT3=
EXTT4=
EXTT5=
EXTT6=
EXTT7=
EXTT8=
EXTT9=
PLAYORDER=
